<svg width="200" height="250" viewBox="0 0 100 125" xmlns="http://www.w3.org/2000/svg">
<defs>
    <linearGradient id="mainGradient" x1="0%" y1="0%" x2="0%" y2="100%">
      <stop offset="0%" style="stop-color:#FF3B30;stop-opacity:1" />
      <stop offset="100%" style="stop-color:#B00020;stop-opacity:1" />
    </linearGradient>
    <filter id="shadowBottom" x="-20%" y="-20%" width="140%" height="140%">
      <feDropShadow dx="0" dy="3" stdDeviation="2" flood-color="#000000" flood-opacity="0.4"/>
    </filter>
  </defs>
  <path d="M10,15 Q50,5 90,15 Q100,40 95,65 Q75,80 50,120 Q25,80 5,65 Q0,40 10,15 Z" 
        fill="url(#mainGradient)" filter="url(#shadowBottom)"/>
  <!-- Mark 02 -->
  <g id="mark_02">
<!-- Shorter Translucent Drum (Cylinder) - Entire Assembly Shifted Down Slightly -->

  <!-- 1. Back Rim (Inside top edge) - Shifted from 38 to 40 -->
  <path d="M30,40 A20,5 0 0 1 70,40" fill="none" stroke="#8E8E93" stroke-width="0.8" stroke-opacity="0.3" />

  <!-- 2. Submerged Part of 01 Design (Translucent) - Shifted from -3 to -1 -->
  <g transform="translate(0, -1) scale(0.65) translate(26.9, 0)" opacity="0.4">
    <path d="M50,75 Q85,75 50,61" fill="none" stroke="white" stroke-width="3" stroke-dasharray="0.1 6" stroke-linecap="round" />
    <circle cx="50" cy="75" r="4.5" fill="#FF3B30" stroke="white" stroke-width="1.5" />
  </g>

  <!-- 3. Short Drum Body - Shifted from 38 to 40 -->
  <path d="M30,40 Q30,60 50,60 Q70,60 70,40 L70,40 Q70,60 50,60 Q30,60 30,40 Z" fill="#8E8E93" fill-opacity="0.4" />
  <rect x="30" y="40" width="40" height="20" fill="#8E8E93" fill-opacity="0.35" />
  <ellipse cx="50" cy="60" rx="20" ry="5" fill="#8E8E93" fill-opacity="0.45" />

  <!-- 4. Floating Part of 01 Design (Solid) - Shifted from -3 to -1 -->
  <g transform="translate(0, -1) scale(0.65) translate(26.9, 0)">
    <path d="M50,61 Q15,55 50,35" fill="none" stroke="white" stroke-width="3" stroke-dasharray="0.1 6" stroke-linecap="round" />
    <circle cx="50" cy="35" r="9" fill="white" />
  </g>

  <!-- 5. Front Rim (Top edge) - Shifted from 38 to 40 -->
  <path d="M30,40 A20,5 0 0 0 70,40" fill="none" stroke="#8E8E93" stroke-width="1" stroke-opacity="0.5" stroke-linecap="round" />
  </g>
</svg>