<svg width="100" height="125" viewBox="0 0 100 125" xmlns="http://www.w3.org/2000/svg">
  <defs>
    <linearGradient id="mainGradient" x1="0%" y1="0%" x2="0%" y2="100%">
      <stop offset="0%" style="stop-color:#007AFF;stop-opacity:1" />
      <stop offset="100%" style="stop-color:#0040DD;stop-opacity:1" />
    </linearGradient>
    <filter id="shadowBottom" x="-20%" y="-20%" width="140%" height="140%">
      <feDropShadow dx="0" dy="3" stdDeviation="2" flood-color="#000000" flood-opacity="0.4"/>
    </filter>
  </defs>

  <path d="M10,15 Q50,5 90,15 Q100,40 95,65 Q75,80 50,120 Q25,80 5,65 Q0,40 10,15 Z" 
        fill="url(#mainGradient)" filter="url(#shadowBottom)"/>

  <g transform="translate(50, 45) scale(0.6) translate(-50, -50)">
      <path d="M35,95 L35,60 L25,60 L25,35 Q25,15 35,15 L40,15 L40,10 Q40,0 50,0 Q60,0 60,10 L60,15 L65,15 Q75,15 75,35 L75,60 L65,60 L65,95 Z" fill="#FFFFFF"/>
  </g>
</svg>
